<?xml version="1.0" encoding="UTF-8" standalone="no"?>
<!DOCTYPE svg PUBLIC "-//W3C//DTD SVG 1.1//EN"
 "http://www.w3.org/Graphics/SVG/1.1/DTD/svg11.dtd">
<!-- Generated by graphviz version 2.47.0 (20210316.0004)
 -->
<!-- Title: dependencies Pages: 1 -->
<svg width="573pt" height="211pt"
 viewBox="0.00 0.00 573.00 211.00" xmlns="http://www.w3.org/2000/svg" xmlns:xlink="http://www.w3.org/1999/xlink">
<g id="graph0" class="graph" transform="scale(1 1) rotate(0) translate(4 207)">
<title>dependencies</title>
<polygon fill="white" stroke="transparent" points="-4,4 -4,-207 569,-207 569,4 -4,4"/>
<text text-anchor="start" x="261.51" y="-42.4" font-family="Times-12" font-weight="bold" font-size="14.00">Legend</text>
<polygon fill="#ffffb3" stroke="transparent" points="48.5,-10 48.5,-30 68.5,-30 68.5,-10 48.5,-10"/>
<text text-anchor="start" x="72.13" y="-15.4" font-family="Times-12" font-size="14.00"> &#160;Declarations</text>
<polygon fill="#8dd3c7" stroke="transparent" points="161.5,-10 161.5,-30 181.5,-30 181.5,-10 161.5,-10"/>
<text text-anchor="start" x="185.23" y="-15.4" font-family="Times-12" font-size="14.00"> &#160;Module</text>
<polygon fill="#80b1d3" stroke="transparent" points="247.5,-10 247.5,-30 267.5,-30 267.5,-10 247.5,-10"/>
<text text-anchor="start" x="271.28" y="-15.4" font-family="Times-12" font-size="14.00"> &#160;Bootstrap</text>
<polygon fill="#fdb462" stroke="transparent" points="344.5,-10 344.5,-30 364.5,-30 364.5,-10 344.5,-10"/>
<text text-anchor="start" x="368.17" y="-15.4" font-family="Times-12" font-size="14.00"> &#160;Providers</text>
<polygon fill="#fb8072" stroke="transparent" points="440.5,-10 440.5,-30 460.5,-30 460.5,-10 440.5,-10"/>
<text text-anchor="start" x="464.23" y="-15.4" font-family="Times-12" font-size="14.00"> &#160;Exports</text>
<g id="clust1" class="cluster">
<title>cluster_SeriesModule</title>
<polygon fill="none" stroke="black" stroke-dasharray="1,5" points="8,-70 8,-195 557,-195 557,-70 8,-70"/>
</g>
<g id="clust3" class="cluster">
<title>cluster_SeriesModule_imports</title>
<polygon fill="none" stroke="black" points="168,-78 168,-130 549,-130 549,-78 168,-78"/>
</g>
<g id="clust6" class="cluster">
<title>cluster_SeriesModule_providers</title>
<polygon fill="none" stroke="black" points="16,-78 16,-130 160,-130 160,-78 16,-78"/>
</g>
<!-- CharactersModule -->
<g id="node1" class="node">
<title>CharactersModule</title>
<polygon fill="#8dd3c7" stroke="black" points="540.9,-122 537.9,-126 516.9,-126 513.9,-122 421.1,-122 421.1,-86 540.9,-86 540.9,-122"/>
<text text-anchor="middle" x="481" y="-99.8" font-family="Times,serif" font-size="14.00">CharactersModule</text>
</g>
<!-- SeriesModule -->
<g id="node4" class="node">
<title>SeriesModule</title>
<polygon fill="#8dd3c7" stroke="black" points="336.76,-187 333.76,-191 312.76,-191 309.76,-187 243.24,-187 243.24,-151 336.76,-151 336.76,-187"/>
<text text-anchor="middle" x="290" y="-164.8" font-family="Times,serif" font-size="14.00">SeriesModule</text>
</g>
<!-- CharactersModule&#45;&gt;SeriesModule -->
<g id="edge1" class="edge">
<title>CharactersModule&#45;&gt;SeriesModule</title>
<path fill="none" stroke="black" d="M481,-122.11C481,-141.34 481,-169 481,-169 481,-169 347.21,-169 347.21,-169"/>
<polygon fill="black" stroke="black" points="347.21,-165.5 337.21,-169 347.21,-172.5 347.21,-165.5"/>
</g>
<!-- ComicsModule -->
<g id="node2" class="node">
<title>ComicsModule</title>
<polygon fill="#8dd3c7" stroke="black" points="403.33,-122 400.33,-126 379.33,-126 376.33,-122 300.67,-122 300.67,-86 403.33,-86 403.33,-122"/>
<text text-anchor="middle" x="352" y="-99.8" font-family="Times,serif" font-size="14.00">ComicsModule</text>
</g>
<!-- ComicsModule&#45;&gt;SeriesModule -->
<g id="edge2" class="edge">
<title>ComicsModule&#45;&gt;SeriesModule</title>
<path fill="none" stroke="black" d="M318.86,-122.11C318.86,-122.11 318.86,-140.99 318.86,-140.99"/>
<polygon fill="black" stroke="black" points="315.36,-140.99 318.86,-150.99 322.36,-140.99 315.36,-140.99"/>
</g>
<!-- CreatorsModule -->
<g id="node3" class="node">
<title>CreatorsModule</title>
<polygon fill="#8dd3c7" stroke="black" points="282.47,-122 279.47,-126 258.47,-126 255.47,-122 175.53,-122 175.53,-86 282.47,-86 282.47,-122"/>
<text text-anchor="middle" x="229" y="-99.8" font-family="Times,serif" font-size="14.00">CreatorsModule</text>
</g>
<!-- CreatorsModule&#45;&gt;SeriesModule -->
<g id="edge3" class="edge">
<title>CreatorsModule&#45;&gt;SeriesModule</title>
<path fill="none" stroke="black" d="M262.8,-122.11C262.8,-122.11 262.8,-140.99 262.8,-140.99"/>
<polygon fill="black" stroke="black" points="259.3,-140.99 262.8,-150.99 266.3,-140.99 259.3,-140.99"/>
</g>
<!-- SeriesService -->
<g id="node5" class="node">
<title>SeriesService</title>
<ellipse fill="#fdb462" stroke="black" cx="88" cy="-104" rx="63.68" ry="18"/>
<text text-anchor="middle" x="88" y="-99.8" font-family="Times,serif" font-size="14.00">SeriesService</text>
</g>
<!-- SeriesService&#45;&gt;SeriesModule -->
<g id="edge4" class="edge">
<title>SeriesService&#45;&gt;SeriesModule</title>
<path fill="none" stroke="black" d="M88,-122.11C88,-141.34 88,-169 88,-169 88,-169 233.15,-169 233.15,-169"/>
<polygon fill="black" stroke="black" points="233.15,-172.5 243.15,-169 233.15,-165.5 233.15,-172.5"/>
</g>
</g>
</svg>
