<?xml version="1.0" encoding="UTF-8" standalone="no"?>
<!DOCTYPE svg PUBLIC "-//W3C//DTD SVG 1.1//EN"
 "http://www.w3.org/Graphics/SVG/1.1/DTD/svg11.dtd">
<!-- Generated by graphviz version 2.47.0 (20210316.0004)
 -->
<!-- Title: dependencies Pages: 1 -->
<svg width="533pt" height="211pt"
 viewBox="0.00 0.00 533.00 211.00" xmlns="http://www.w3.org/2000/svg" xmlns:xlink="http://www.w3.org/1999/xlink">
<g id="graph0" class="graph" transform="scale(1 1) rotate(0) translate(4 207)">
<title>dependencies</title>
<polygon fill="white" stroke="transparent" points="-4,4 -4,-207 529,-207 529,4 -4,4"/>
<text text-anchor="start" x="241.51" y="-42.4" font-family="Times-12" font-weight="bold" font-size="14.00">Legend</text>
<polygon fill="#ffffb3" stroke="transparent" points="28.5,-10 28.5,-30 48.5,-30 48.5,-10 28.5,-10"/>
<text text-anchor="start" x="52.13" y="-15.4" font-family="Times-12" font-size="14.00"> &#160;Declarations</text>
<polygon fill="#8dd3c7" stroke="transparent" points="141.5,-10 141.5,-30 161.5,-30 161.5,-10 141.5,-10"/>
<text text-anchor="start" x="165.23" y="-15.4" font-family="Times-12" font-size="14.00"> &#160;Module</text>
<polygon fill="#80b1d3" stroke="transparent" points="227.5,-10 227.5,-30 247.5,-30 247.5,-10 227.5,-10"/>
<text text-anchor="start" x="251.28" y="-15.4" font-family="Times-12" font-size="14.00"> &#160;Bootstrap</text>
<polygon fill="#fdb462" stroke="transparent" points="324.5,-10 324.5,-30 344.5,-30 344.5,-10 324.5,-10"/>
<text text-anchor="start" x="348.17" y="-15.4" font-family="Times-12" font-size="14.00"> &#160;Providers</text>
<polygon fill="#fb8072" stroke="transparent" points="420.5,-10 420.5,-30 440.5,-30 440.5,-10 420.5,-10"/>
<text text-anchor="start" x="444.23" y="-15.4" font-family="Times-12" font-size="14.00"> &#160;Exports</text>
<g id="clust1" class="cluster">
<title>cluster_AppModule</title>
<polygon fill="none" stroke="black" stroke-dasharray="1,5" points="8,-70 8,-195 517,-195 517,-70 8,-70"/>
</g>
<g id="clust3" class="cluster">
<title>cluster_AppModule_imports</title>
<polygon fill="none" stroke="black" points="16,-78 16,-130 509,-130 509,-78 16,-78"/>
</g>
<!-- CharactersModule -->
<g id="node1" class="node">
<title>CharactersModule</title>
<polygon fill="#8dd3c7" stroke="black" points="500.9,-122 497.9,-126 476.9,-126 473.9,-122 381.1,-122 381.1,-86 500.9,-86 500.9,-122"/>
<text text-anchor="middle" x="441" y="-99.8" font-family="Times,serif" font-size="14.00">CharactersModule</text>
</g>
<!-- AppModule -->
<g id="node5" class="node">
<title>AppModule</title>
<polygon fill="#8dd3c7" stroke="black" points="291.66,-187 288.66,-191 267.66,-191 264.66,-187 208.34,-187 208.34,-151 291.66,-151 291.66,-187"/>
<text text-anchor="middle" x="250" y="-164.8" font-family="Times,serif" font-size="14.00">AppModule</text>
</g>
<!-- CharactersModule&#45;&gt;AppModule -->
<g id="edge1" class="edge">
<title>CharactersModule&#45;&gt;AppModule</title>
<path fill="none" stroke="black" d="M441,-122.11C441,-141.34 441,-169 441,-169 441,-169 301.92,-169 301.92,-169"/>
<polygon fill="black" stroke="black" points="301.92,-165.5 291.92,-169 301.92,-172.5 301.92,-165.5"/>
</g>
<!-- ComicsModule -->
<g id="node2" class="node">
<title>ComicsModule</title>
<polygon fill="#8dd3c7" stroke="black" points="363.33,-122 360.33,-126 339.33,-126 336.33,-122 260.67,-122 260.67,-86 363.33,-86 363.33,-122"/>
<text text-anchor="middle" x="312" y="-99.8" font-family="Times,serif" font-size="14.00">ComicsModule</text>
</g>
<!-- ComicsModule&#45;&gt;AppModule -->
<g id="edge2" class="edge">
<title>ComicsModule&#45;&gt;AppModule</title>
<path fill="none" stroke="black" d="M276.33,-122.11C276.33,-122.11 276.33,-140.99 276.33,-140.99"/>
<polygon fill="black" stroke="black" points="272.83,-140.99 276.33,-150.99 279.83,-140.99 272.83,-140.99"/>
</g>
<!-- CreatorsModule -->
<g id="node3" class="node">
<title>CreatorsModule</title>
<polygon fill="#8dd3c7" stroke="black" points="242.47,-122 239.47,-126 218.47,-126 215.47,-122 135.53,-122 135.53,-86 242.47,-86 242.47,-122"/>
<text text-anchor="middle" x="189" y="-99.8" font-family="Times,serif" font-size="14.00">CreatorsModule</text>
</g>
<!-- CreatorsModule&#45;&gt;AppModule -->
<g id="edge3" class="edge">
<title>CreatorsModule&#45;&gt;AppModule</title>
<path fill="none" stroke="black" d="M225.33,-122.11C225.33,-122.11 225.33,-140.99 225.33,-140.99"/>
<polygon fill="black" stroke="black" points="221.83,-140.99 225.33,-150.99 228.83,-140.99 221.83,-140.99"/>
</g>
<!-- SeriesModule -->
<g id="node4" class="node">
<title>SeriesModule</title>
<polygon fill="#8dd3c7" stroke="black" points="117.76,-122 114.76,-126 93.76,-126 90.76,-122 24.24,-122 24.24,-86 117.76,-86 117.76,-122"/>
<text text-anchor="middle" x="71" y="-99.8" font-family="Times,serif" font-size="14.00">SeriesModule</text>
</g>
<!-- SeriesModule&#45;&gt;AppModule -->
<g id="edge4" class="edge">
<title>SeriesModule&#45;&gt;AppModule</title>
<path fill="none" stroke="black" d="M71,-122.11C71,-141.34 71,-169 71,-169 71,-169 198.03,-169 198.03,-169"/>
<polygon fill="black" stroke="black" points="198.03,-172.5 208.03,-169 198.03,-165.5 198.03,-172.5"/>
</g>
</g>
</svg>
