<?xml version="1.0" encoding="UTF-8" standalone="no"?>
<!DOCTYPE svg PUBLIC "-//W3C//DTD SVG 1.1//EN"
 "http://www.w3.org/Graphics/SVG/1.1/DTD/svg11.dtd">
<!-- Generated by graphviz version 2.47.0 (20210316.0004)
 -->
<!-- Title: dependencies Pages: 1 -->
<svg width="1561pt" height="287pt"
 viewBox="0.00 0.00 1561.00 287.00" xmlns="http://www.w3.org/2000/svg" xmlns:xlink="http://www.w3.org/1999/xlink">
<g id="graph0" class="graph" transform="scale(1 1) rotate(0) translate(4 283)">
<title>dependencies</title>
<polygon fill="white" stroke="transparent" points="-4,4 -4,-283 1557,-283 1557,4 -4,4"/>
<text text-anchor="start" x="755.51" y="-42.4" font-family="Times-12" font-weight="bold" font-size="14.00">Legend</text>
<polygon fill="#ffffb3" stroke="transparent" points="542.5,-10 542.5,-30 562.5,-30 562.5,-10 542.5,-10"/>
<text text-anchor="start" x="566.13" y="-15.4" font-family="Times-12" font-size="14.00"> &#160;Declarations</text>
<polygon fill="#8dd3c7" stroke="transparent" points="655.5,-10 655.5,-30 675.5,-30 675.5,-10 655.5,-10"/>
<text text-anchor="start" x="679.23" y="-15.4" font-family="Times-12" font-size="14.00"> &#160;Module</text>
<polygon fill="#80b1d3" stroke="transparent" points="741.5,-10 741.5,-30 761.5,-30 761.5,-10 741.5,-10"/>
<text text-anchor="start" x="765.28" y="-15.4" font-family="Times-12" font-size="14.00"> &#160;Bootstrap</text>
<polygon fill="#fdb462" stroke="transparent" points="838.5,-10 838.5,-30 858.5,-30 858.5,-10 838.5,-10"/>
<text text-anchor="start" x="862.17" y="-15.4" font-family="Times-12" font-size="14.00"> &#160;Providers</text>
<polygon fill="#fb8072" stroke="transparent" points="934.5,-10 934.5,-30 954.5,-30 954.5,-10 934.5,-10"/>
<text text-anchor="start" x="958.23" y="-15.4" font-family="Times-12" font-size="14.00"> &#160;Exports</text>
<g id="clust1" class="cluster">
<title>cluster_AppModule</title>
<polygon fill="none" stroke="black" stroke-dasharray="1,5" points="176,-70 176,-271 573,-271 573,-70 176,-70"/>
</g>
<g id="clust3" class="cluster">
<title>cluster_AppModule_imports</title>
<polygon fill="none" stroke="black" points="184,-78 184,-206 565,-206 565,-78 184,-78"/>
</g>
<g id="clust7" class="cluster">
<title>cluster_CharactersModule</title>
<polygon fill="none" stroke="black" stroke-dasharray="1,5" points="581,-146 581,-214 921,-214 921,-146 581,-146"/>
</g>
<g id="clust10" class="cluster">
<title>cluster_CharactersModule_exports</title>
<polygon fill="none" stroke="black" points="775,-154 775,-206 913,-206 913,-154 775,-154"/>
</g>
<g id="clust12" class="cluster">
<title>cluster_CharactersModule_providers</title>
<polygon fill="none" stroke="black" points="589,-154 589,-206 767,-206 767,-154 589,-154"/>
</g>
<g id="clust13" class="cluster">
<title>cluster_ComicsModule</title>
<polygon fill="none" stroke="black" stroke-dasharray="1,5" points="929,-146 929,-214 1227,-214 1227,-146 929,-146"/>
</g>
<g id="clust16" class="cluster">
<title>cluster_ComicsModule_exports</title>
<polygon fill="none" stroke="black" points="1099,-154 1099,-206 1219,-206 1219,-154 1099,-154"/>
</g>
<g id="clust18" class="cluster">
<title>cluster_ComicsModule_providers</title>
<polygon fill="none" stroke="black" points="937,-154 937,-206 1091,-206 1091,-154 937,-154"/>
</g>
<g id="clust19" class="cluster">
<title>cluster_CreatorsModule</title>
<polygon fill="none" stroke="black" stroke-dasharray="1,5" points="1235,-146 1235,-214 1545,-214 1545,-146 1235,-146"/>
</g>
<g id="clust22" class="cluster">
<title>cluster_CreatorsModule_exports</title>
<polygon fill="none" stroke="black" points="1413,-154 1413,-206 1537,-206 1537,-154 1413,-154"/>
</g>
<g id="clust24" class="cluster">
<title>cluster_CreatorsModule_providers</title>
<polygon fill="none" stroke="black" points="1243,-154 1243,-206 1405,-206 1405,-154 1243,-154"/>
</g>
<g id="clust25" class="cluster">
<title>cluster_SeriesModule</title>
<polygon fill="none" stroke="black" stroke-dasharray="1,5" points="8,-70 8,-138 168,-138 168,-70 8,-70"/>
</g>
<g id="clust30" class="cluster">
<title>cluster_SeriesModule_providers</title>
<polygon fill="none" stroke="black" points="16,-78 16,-130 160,-130 160,-78 16,-78"/>
</g>
<!-- CharactersModule -->
<g id="node1" class="node">
<title>CharactersModule</title>
<polygon fill="#8dd3c7" stroke="black" points="311.9,-122 308.9,-126 287.9,-126 284.9,-122 192.1,-122 192.1,-86 311.9,-86 311.9,-122"/>
<text text-anchor="middle" x="252" y="-99.8" font-family="Times,serif" font-size="14.00">CharactersModule</text>
</g>
<!-- SeriesModule -->
<g id="node4" class="node">
<title>SeriesModule</title>
<polygon fill="#8dd3c7" stroke="black" points="341.76,-198 338.76,-202 317.76,-202 314.76,-198 248.24,-198 248.24,-162 341.76,-162 341.76,-198"/>
<text text-anchor="middle" x="295" y="-175.8" font-family="Times,serif" font-size="14.00">SeriesModule</text>
</g>
<!-- CharactersModule&#45;&gt;SeriesModule -->
<g id="edge11" class="edge">
<title>CharactersModule&#45;&gt;SeriesModule</title>
<path fill="none" stroke="black" d="M264.02,-122.01C264.02,-122.01 264.02,-151.85 264.02,-151.85"/>
<polygon fill="black" stroke="black" points="260.52,-151.85 264.02,-161.85 267.52,-151.85 260.52,-151.85"/>
</g>
<!-- AppModule -->
<g id="node5" class="node">
<title>AppModule</title>
<polygon fill="#8dd3c7" stroke="black" points="412.66,-263 409.66,-267 388.66,-267 385.66,-263 329.34,-263 329.34,-227 412.66,-227 412.66,-263"/>
<text text-anchor="middle" x="371" y="-240.8" font-family="Times,serif" font-size="14.00">AppModule</text>
</g>
<!-- CharactersModule&#45;&gt;AppModule -->
<g id="edge1" class="edge">
<title>CharactersModule&#45;&gt;AppModule</title>
<path fill="none" stroke="black" d="M220.21,-122.14C220.21,-160.23 220.21,-245 220.21,-245 220.21,-245 319,-245 319,-245"/>
<polygon fill="black" stroke="black" points="319,-248.5 329,-245 319,-241.5 319,-248.5"/>
</g>
<!-- CharactersService  -->
<g id="node6" class="node">
<title>CharactersService </title>
<polygon fill="#fb8072" stroke="black" points="904.83,-198 783.17,-198 783.17,-162 904.83,-162 904.83,-198"/>
<text text-anchor="middle" x="844" y="-175.8" font-family="Times,serif" font-size="14.00">CharactersService </text>
</g>
<!-- CharactersModule&#45;&gt;CharactersService  -->
<g id="edge5" class="edge">
<title>CharactersModule&#45;&gt;CharactersService </title>
<path fill="none" stroke="black" stroke-dasharray="5,2" d="M279.91,-122.06C279.91,-133.44 279.91,-146 279.91,-146 279.91,-146 844,-146 844,-146 844,-146 844,-151.81 844,-151.81"/>
<polygon fill="black" stroke="black" points="840.5,-151.81 844,-161.81 847.5,-151.81 840.5,-151.81"/>
</g>
<!-- ComicsModule -->
<g id="node2" class="node">
<title>ComicsModule</title>
<polygon fill="#8dd3c7" stroke="black" points="432.33,-122 429.33,-126 408.33,-126 405.33,-122 329.67,-122 329.67,-86 432.33,-86 432.33,-122"/>
<text text-anchor="middle" x="381" y="-99.8" font-family="Times,serif" font-size="14.00">ComicsModule</text>
</g>
<!-- ComicsModule&#45;&gt;SeriesModule -->
<g id="edge12" class="edge">
<title>ComicsModule&#45;&gt;SeriesModule</title>
<path fill="none" stroke="black" d="M335.86,-122.01C335.86,-122.01 335.86,-151.85 335.86,-151.85"/>
<polygon fill="black" stroke="black" points="332.36,-151.85 335.86,-161.85 339.36,-151.85 332.36,-151.85"/>
</g>
<!-- ComicsModule&#45;&gt;AppModule -->
<g id="edge2" class="edge">
<title>ComicsModule&#45;&gt;AppModule</title>
<path fill="none" stroke="black" d="M377.35,-122.14C377.35,-122.14 377.35,-216.93 377.35,-216.93"/>
<polygon fill="black" stroke="black" points="373.85,-216.92 377.35,-226.93 380.85,-216.93 373.85,-216.92"/>
</g>
<!-- ComicsService  -->
<g id="node8" class="node">
<title>ComicsService </title>
<polygon fill="#fb8072" stroke="black" points="1211.25,-198 1106.75,-198 1106.75,-162 1211.25,-162 1211.25,-198"/>
<text text-anchor="middle" x="1159" y="-175.8" font-family="Times,serif" font-size="14.00">ComicsService </text>
</g>
<!-- ComicsModule&#45;&gt;ComicsService  -->
<g id="edge7" class="edge">
<title>ComicsModule&#45;&gt;ComicsService </title>
<path fill="none" stroke="black" stroke-dasharray="5,2" d="M419.27,-122.06C419.27,-126.49 419.27,-130 419.27,-130 419.27,-130 1159,-130 1159,-130 1159,-130 1159,-151.95 1159,-151.95"/>
<polygon fill="black" stroke="black" points="1155.5,-151.95 1159,-161.95 1162.5,-151.95 1155.5,-151.95"/>
</g>
<!-- CreatorsModule -->
<g id="node3" class="node">
<title>CreatorsModule</title>
<polygon fill="#8dd3c7" stroke="black" points="557.47,-122 554.47,-126 533.47,-126 530.47,-122 450.53,-122 450.53,-86 557.47,-86 557.47,-122"/>
<text text-anchor="middle" x="504" y="-99.8" font-family="Times,serif" font-size="14.00">CreatorsModule</text>
</g>
<!-- CreatorsModule&#45;&gt;SeriesModule -->
<g id="edge13" class="edge">
<title>CreatorsModule&#45;&gt;SeriesModule</title>
<path fill="none" stroke="black" d="M486.17,-122.01C486.17,-144.49 486.17,-180 486.17,-180 486.17,-180 351.77,-180 351.77,-180"/>
<polygon fill="black" stroke="black" points="351.77,-176.5 341.77,-180 351.77,-183.5 351.77,-176.5"/>
</g>
<!-- CreatorsModule&#45;&gt;AppModule -->
<g id="edge3" class="edge">
<title>CreatorsModule&#45;&gt;AppModule</title>
<path fill="none" stroke="black" d="M521.83,-122.14C521.83,-160.23 521.83,-245 521.83,-245 521.83,-245 423.01,-245 423.01,-245"/>
<polygon fill="black" stroke="black" points="423.01,-241.5 413.01,-245 423.01,-248.5 423.01,-241.5"/>
</g>
<!-- CreatorsService  -->
<g id="node10" class="node">
<title>CreatorsService </title>
<polygon fill="#fb8072" stroke="black" points="1529.4,-198 1420.6,-198 1420.6,-162 1529.4,-162 1529.4,-198"/>
<text text-anchor="middle" x="1475" y="-175.8" font-family="Times,serif" font-size="14.00">CreatorsService </text>
</g>
<!-- CreatorsModule&#45;&gt;CreatorsService  -->
<g id="edge9" class="edge">
<title>CreatorsModule&#45;&gt;CreatorsService </title>
<path fill="none" stroke="black" stroke-dasharray="5,2" d="M557.59,-98C761.15,-98 1475,-98 1475,-98 1475,-98 1475,-151.8 1475,-151.8"/>
<polygon fill="black" stroke="black" points="1471.5,-151.8 1475,-161.8 1478.5,-151.8 1471.5,-151.8"/>
</g>
<!-- SeriesModule&#45;&gt;AppModule -->
<g id="edge4" class="edge">
<title>SeriesModule&#45;&gt;AppModule</title>
<path fill="none" stroke="black" d="M335.53,-198.11C335.53,-198.11 335.53,-216.99 335.53,-216.99"/>
<polygon fill="black" stroke="black" points="332.03,-216.99 335.53,-226.99 339.03,-216.99 332.03,-216.99"/>
</g>
<!-- CharactersService -->
<g id="node7" class="node">
<title>CharactersService</title>
<ellipse fill="#fdb462" stroke="black" cx="678" cy="-180" rx="81.05" ry="18"/>
<text text-anchor="middle" x="678" y="-175.8" font-family="Times,serif" font-size="14.00">CharactersService</text>
</g>
<!-- CharactersService&#45;&gt;CharactersModule -->
<g id="edge6" class="edge">
<title>CharactersService&#45;&gt;CharactersModule</title>
<path fill="none" stroke="black" d="M678,-161.94C678,-157.51 678,-154 678,-154 678,-154 295.81,-154 295.81,-154 295.81,-154 295.81,-132.05 295.81,-132.05"/>
<polygon fill="black" stroke="black" points="299.31,-132.05 295.81,-122.05 292.31,-132.05 299.31,-132.05"/>
</g>
<!-- ComicsService -->
<g id="node9" class="node">
<title>ComicsService</title>
<ellipse fill="#fdb462" stroke="black" cx="1014" cy="-180" rx="69.5" ry="18"/>
<text text-anchor="middle" x="1014" y="-175.8" font-family="Times,serif" font-size="14.00">ComicsService</text>
</g>
<!-- ComicsService&#45;&gt;ComicsModule -->
<g id="edge8" class="edge">
<title>ComicsService&#45;&gt;ComicsModule</title>
<path fill="none" stroke="black" d="M1014,-161.94C1014,-150.56 1014,-138 1014,-138 1014,-138 425.72,-138 425.72,-138 425.72,-138 425.72,-132.19 425.72,-132.19"/>
<polygon fill="black" stroke="black" points="429.22,-132.19 425.72,-122.19 422.22,-132.19 429.22,-132.19"/>
</g>
<!-- CreatorsService -->
<g id="node11" class="node">
<title>CreatorsService</title>
<ellipse fill="#fdb462" stroke="black" cx="1324" cy="-180" rx="72.91" ry="18"/>
<text text-anchor="middle" x="1324" y="-175.8" font-family="Times,serif" font-size="14.00">CreatorsService</text>
</g>
<!-- CreatorsService&#45;&gt;CreatorsModule -->
<g id="edge10" class="edge">
<title>CreatorsService&#45;&gt;CreatorsModule</title>
<path fill="none" stroke="black" d="M1324,-161.97C1324,-141.23 1324,-110 1324,-110 1324,-110 567.49,-110 567.49,-110"/>
<polygon fill="black" stroke="black" points="567.49,-106.5 557.49,-110 567.49,-113.5 567.49,-106.5"/>
</g>
<!-- SeriesService -->
<g id="node12" class="node">
<title>SeriesService</title>
<ellipse fill="#fdb462" stroke="black" cx="88" cy="-104" rx="63.68" ry="18"/>
<text text-anchor="middle" x="88" y="-99.8" font-family="Times,serif" font-size="14.00">SeriesService</text>
</g>
<!-- SeriesService&#45;&gt;SeriesModule -->
<g id="edge14" class="edge">
<title>SeriesService&#45;&gt;SeriesModule</title>
<path fill="none" stroke="black" d="M88,-122.01C88,-144.49 88,-180 88,-180 88,-180 238.03,-180 238.03,-180"/>
<polygon fill="black" stroke="black" points="238.03,-183.5 248.03,-180 238.03,-176.5 238.03,-183.5"/>
</g>
</g>
</svg>
